<svg id="Layer_1" data-name="Layer 1" xmlns="http://www.w3.org/2000/svg" xmlns:xlink="http://www.w3.org/1999/xlink" viewBox="0 0 191 214"><defs><style>.cls-1{fill:url(#linear-gradient);}</style><linearGradient id="linear-gradient" x1="8.12" y1="156.23" x2="173.85" y2="-9.5" gradientUnits="userSpaceOnUse"><stop offset="0" stop-color="#02bff1"/><stop offset="0.68" stop-color="#916bff"/></linearGradient></defs><title>security-full</title><path class="cls-1" d="M83.67,214.22a8,8,0,0,1-4-1.08c-57-33-79.16-60.26-79.16-97V19.92a8,8,0,0,1,11.35-7.26l1.47.68.57.29a65.54,65.54,0,0,0,32.94,8.47c10.88,0,21.24-2.87,32.61-9a8,8,0,0,1,8.48.54,32.5,32.5,0,0,0,13.86,5.57,8,8,0,1,1-1.28,15.95,46.75,46.75,0,0,1-17.65-5.82c-12.13,5.92-24,8.8-36,8.8A82,82,0,0,1,16.5,32.54V116.1c0,29.74,18.29,51.9,67.15,80.84,9.22-5.49,16.24-9.79,23.27-14.71a8,8,0,0,1,9.18,13.11c-8.48,5.94-16.73,10.89-28.34,17.77A8,8,0,0,1,83.67,214.22ZM160.15,27.15a12.6,12.6,0,0,0-23.31,3c-.54,2.23-.64,4.38-1.72,6.47a15.8,15.8,0,0,1-9,7.26,12.07,12.07,0,0,1-7,.13A12.61,12.61,0,0,0,104.41,52c-.79,2.16-.74,4.48-1.59,6.63A12.65,12.65,0,0,1,98.77,64c-3.09,2.35-6.39,4-10.38,3.55-2.3-.24-4.35-.92-6.7-.6A12.6,12.6,0,1,0,95.91,80.64c.45-4.48,2.38-8.24,6.27-10.66a13.56,13.56,0,0,1,7-2.09c2.25,0,4.32.93,6.56,1a12.67,12.67,0,0,0,11.36-6.31,16.19,16.19,0,0,0,1.73-6.14,13.49,13.49,0,0,1,2.46-6.18,13.28,13.28,0,0,1,10.89-5.55c2.39.08,4.59,1.09,7,1.06a12.55,12.55,0,0,0,6.59-1.94,12.71,12.71,0,0,0,5.86-10.67A12.46,12.46,0,0,0,160.15,27.15ZM177.93-.22a12.52,12.52,0,1,0,12.54,12.51A12.52,12.52,0,0,0,177.93-.22Zm-16.75,67a12.6,12.6,0,0,0-23.6,4.64,13,13,0,0,1-5.29,9.3l-1,.74c-3.21,2.25-7.32,3.43-11,2.19l-.08,0c-.39-.09-.79-.16-1.2-.22l-.14,0a12.66,12.66,0,0,0-1.36-.09H117c-.31,0-.63,0-.94,0l-.53.07c-.28,0-.56.08-.83.13l-.56.13c-.26.07-.53.14-.79.22l-.56.2c-.25.1-.5.2-.75.31l-.55.27c-.24.13-.48.26-.72.4l-.53.33-.26.16c-.15.11-.29.23-.43.34s-.24.16-.35.25l-.19.17-.31.28q-.32.3-.62.61l-.3.32c-.18.2-.35.41-.51.63l-.29.37c-.16.22-.3.45-.44.68s-.41.71-.6,1.07l-.11.21c-.12.26-.23.52-.33.78l-.1.27c-.1.28-.19.56-.28.84,0,.1,0,.2-.08.3a9.31,9.31,0,0,0-.36,1.93,12.88,12.88,0,0,1-5.31,9.23l-1.7,1.19a12.47,12.47,0,0,1-10.26,1.72,12.59,12.59,0,0,0-11.48,2.84A12.41,12.41,0,0,0,73.28,125a12.59,12.59,0,0,0,23.62-5.1,12.81,12.81,0,0,1,5.26-9.69l.3-.21a13,13,0,0,1,11.34-2l.2.05q.42.11.84.19l.58.1.54.07.82.06h.48l.76,0,.35,0c.34,0,.68-.08,1-.14l.33-.06c.35-.07.7-.15,1-.25l.22-.07q.5-.16,1-.36l.15-.06c.36-.15.71-.32,1.06-.51l.21-.12c.34-.19.68-.4,1-.63l.06,0,.1-.08a13,13,0,0,0,1.06-.84,12.23,12.23,0,0,0,.94-.94l.14-.17q.37-.42.7-.88l.14-.19a12.51,12.51,0,0,0,1.25-2.25l.1-.25q.19-.47.34-.94l.09-.31c.11-.37.2-.74.27-1.12l0-.08a12.78,12.78,0,0,0,.17-1.33l.1-.79a13.23,13.23,0,0,1,5.52-9.16h0a13,13,0,0,1,11.12-2,12.59,12.59,0,0,0,14.66-18.08ZM179,39.45A12.52,12.52,0,1,0,191.5,52,12.52,12.52,0,0,0,179,39.45ZM81.83,171.55c6.3,2.17,13.36-2.14,15.35-8.19a33.08,33.08,0,0,0,.79-4.53,13.39,13.39,0,0,1,1.69-4.5A13.75,13.75,0,0,1,106,148.9a12.8,12.8,0,0,1,4.92-1,27,27,0,0,1,4.92.79,12.59,12.59,0,1,0-9.56-16.83,31.82,31.82,0,0,0-1,4.62A14.84,14.84,0,0,1,94,147.35a13.66,13.66,0,0,1-5.18,0,17.41,17.41,0,0,0-4.31-.47,12.56,12.56,0,0,0-7.75,3.23c-5.84,5.38-5.47,15,1.2,19.57A16.21,16.21,0,0,0,81.83,171.55ZM148,103a12.52,12.52,0,1,0,12.52,12.52A12.52,12.52,0,0,0,148,103Z"/></svg>